<svg width="53" height="53" viewBox="0 0 53 53" fill="none" xmlns="http://www.w3.org/2000/svg">
<g clip-path="url(#clip0_27_111)">
<path d="M16.6733 48.0309C36.6683 48.0309 47.6079 31.4611 47.6079 17.0963C47.6079 16.6305 47.5975 16.1543 47.5768 15.6885C49.7049 14.1495 51.5414 12.2432 53 10.0593C51.0181 10.9411 48.9138 11.517 46.759 11.7673C49.0278 10.4073 50.7266 8.27091 51.5404 5.75407C49.4061 7.01898 47.0719 7.91127 44.638 8.39268C42.9981 6.65019 40.8298 5.49646 38.4685 5.10986C36.1071 4.72326 33.6841 5.12532 31.5742 6.25388C29.4642 7.38244 27.7848 9.17464 26.7956 11.3534C25.8063 13.5321 25.5624 15.9761 26.1015 18.3074C21.7797 18.0905 17.5517 16.9678 13.6916 15.0121C9.83156 13.0564 6.42557 10.3113 3.69447 6.95485C2.30638 9.34808 1.88162 12.18 2.50653 14.8752C3.13143 17.5703 4.7591 19.9264 7.05873 21.4646C5.3323 21.4098 3.6437 20.945 2.13242 20.1086V20.2431C2.13088 22.7547 2.99913 25.1892 4.5896 27.1329C6.18007 29.0767 8.39459 30.4097 10.8567 30.9053C9.25745 31.3428 7.57896 31.4066 5.95111 31.0916C6.64588 33.2515 7.99764 35.1406 9.81774 36.4953C11.6378 37.85 13.8355 38.6026 16.1039 38.6482C12.2528 41.6734 7.49547 43.3142 2.59824 43.3064C1.72976 43.3051 0.862131 43.2519 0 43.147C4.97506 46.3388 10.7624 48.034 16.6733 48.0309Z" fill="white"/>
</g>
<defs>
<clipPath id="clip0_27_111">
<rect width="53" height="53" fill="white"/>
</clipPath>
</defs>
</svg>
